<svg xmlns="http://www.w3.org/2000/svg" width="256" height="256" viewBox="0 0 100 100"><rect width="100" height="100" rx="20" fill="#f5a623"></rect><path fill="#fff" d="M41.85 34.70L41.85 34.70Q43.38 34.70 44.33 35.51Q45.27 36.32 45.27 37.85L45.27 37.85Q45.27 38.84 44.55 41.31Q43.83 43.79 42.66 47.16Q41.49 50.54 40.01 54.59Q38.52 58.64 36.86 62.64Q35.20 66.65 33.53 70.34Q31.86 74.03 30.42 76.73L30.42 76.73Q29.97 77.09 28.85 77.36Q27.72 77.63 26.46 77.63L26.46 77.63Q23.13 77.63 22.14 75.74L22.14 75.74Q21.34 74.21 20.07 71.51Q18.81 68.81 17.38 65.39Q15.93 61.97 14.40 58.10Q12.88 54.23 11.43 50.40Q9.99 46.58 8.73 43.02Q7.47 39.47 6.66 36.68L6.66 36.68Q7.29 35.78 8.38 35.24Q9.46 34.70 10.53 34.70L10.53 34.70Q12.15 34.70 13.01 35.51Q13.87 36.32 14.58 38.21L14.58 38.21L20.16 54.32Q20.70 55.85 21.52 58.05Q22.32 60.26 23.18 62.55Q24.04 64.85 24.89 67.01Q25.74 69.17 26.29 70.70L26.29 70.70L26.64 70.70Q30.24 61.61 33.35 52.79Q36.45 43.97 38.79 35.42L38.79 35.42Q39.96 34.70 41.85 34.70ZM90.54 28.58L75.69 28.58L75.69 76.91Q75.24 77.09 74.30 77.31Q73.35 77.54 72.36 77.54L72.36 77.54Q68.41 77.54 68.41 74.21L68.41 74.21L68.41 28.58L51.57 28.58Q51.30 28.13 51.03 27.36Q50.76 26.60 50.76 25.61L50.76 25.61Q50.76 24.08 51.48 23.22Q52.20 22.37 53.55 22.37L53.55 22.37L92.52 22.37Q92.79 22.82 93.06 23.58Q93.33 24.35 93.33 25.25L93.33 25.25Q93.33 26.78 92.61 27.68Q91.89 28.58 90.54 28.58L90.54 28.58Z"></path></svg>